<svg version="1.0" xmlns="http://www.w3.org/2000/svg"
 width="300.000000pt" height="298.000000pt" viewBox="0 0 300.000000 298.000000"
 preserveAspectRatio="xMidYMid meet">

<g transform="translate(0.000000,298.000000) scale(0.100000,-0.100000)"
fill="#000000" stroke="none">
<path d="M351 2934 c-11 -15 -25 -43 -31 -63 -18 -62 -22 -210 -7 -304 13 -87
13 -88 -11 -124 -79 -116 -95 -259 -42 -372 17 -35 29 -64 28 -65 -59 -24
-170 -85 -198 -107 -103 -83 -108 -224 -8 -264 61 -24 109 -19 182 19 l66 34
2 -756 c3 -753 3 -757 25 -797 27 -51 57 -79 113 -104 44 -20 61 -21 925 -21
l880 0 50 28 c28 15 62 45 80 70 l30 44 5 621 c3 342 7 623 8 624 1 2 21 15
44 29 23 15 66 49 94 76 58 55 65 53 84 -24 15 -59 -3 -127 -56 -213 -90 -145
-103 -199 -64 -262 35 -59 120 -80 193 -49 73 30 162 156 213 301 26 75 28 90
28 230 -1 144 -2 153 -33 235 -18 47 -50 113 -71 147 -38 60 -39 64 -33 130
21 256 -123 475 -382 578 -80 32 -251 64 -340 65 -108 0 -393 -52 -575 -105
-13 -4 -15 20 -15 173 0 200 -8 234 -59 240 -54 6 -218 -131 -298 -250 l-33
-47 -50 7 c-57 8 -255 9 -331 2 l-51 -5 -64 80 c-113 144 -206 225 -256 225
-12 0 -31 -12 -42 -26z m148 -133 c24 -25 67 -77 96 -116 79 -106 79 -106 155
-95 122 18 307 10 396 -15 17 -5 29 5 66 57 53 74 220 238 243 238 13 0 15
-22 15 -148 0 -82 -5 -174 -11 -206 -10 -55 -9 -61 25 -140 31 -71 36 -94 36
-160 0 -56 -5 -88 -21 -120 -54 -115 -221 -221 -399 -252 -153 -26 -365 -10
-498 40 -194 71 -302 193 -302 339 0 56 31 142 70 197 l23 33 -13 138 c-13
139 -9 234 11 271 10 19 11 19 37 2 15 -10 47 -38 71 -63z m1778 -252 c160
-22 333 -115 408 -221 21 -29 50 -80 63 -113 22 -53 25 -74 25 -180 0 -104 -4
-130 -26 -194 -34 -97 -82 -165 -181 -257 -111 -104 -159 -134 -212 -134 -50
0 -74 19 -74 60 0 35 69 127 145 193 73 64 76 93 8 102 -65 9 -101 24 -140 59
-48 41 -63 76 -63 146 0 71 22 121 82 189 41 47 45 73 14 79 -25 5 -105 -80
-136 -143 -25 -53 -34 -165 -17 -213 l9 -22 -169 2 -168 3 -6 46 c-9 60 -26
91 -47 87 -15 -3 -17 -17 -17 -98 0 -153 -18 -167 -304 -250 -70 -20 -80 -27
-152 -101 -79 -81 -99 -93 -99 -60 0 24 -25 45 -46 37 -10 -4 -15 -16 -13 -33
4 -34 0 -38 -28 -29 -48 15 -42 79 16 165 51 74 121 138 206 188 188 110 258
236 233 418 -5 38 -18 90 -29 114 -10 24 -19 47 -19 52 0 14 300 94 405 108
101 12 241 13 332 0z m-1918 -613 c9 -8 42 -30 73 -49 l58 -34 -73 -27 c-42
-15 -94 -44 -122 -67 -27 -22 -57 -45 -67 -50 -22 -12 -41 -2 -34 16 2 7 -1
21 -9 31 -11 15 -15 16 -29 5 -9 -7 -16 -24 -16 -37 0 -31 -33 -33 -53 -3 -36
51 32 135 158 195 78 38 91 40 114 20z m2495 -154 c13 -26 34 -80 46 -120 20
-65 22 -88 17 -205 -6 -164 -31 -244 -110 -354 -63 -89 -149 -119 -196 -69
-31 33 -24 56 45 171 30 49 62 114 71 144 20 70 13 167 -16 216 l-21 35 43 63
c23 34 53 86 66 115 14 28 26 52 28 52 1 0 14 -21 27 -48z m-591 12 c21 -14
54 -31 73 -37 l35 -12 -37 -40 c-74 -81 -102 -121 -113 -160 -22 -82 27 -158
110 -171 l39 -7 0 -584 c0 -582 0 -586 -22 -624 -44 -78 14 -74 -958 -74 -853
0 -866 0 -904 21 -22 11 -47 35 -58 54 -17 33 -18 73 -16 814 l3 780 85 29 85
29 85 -21 c136 -33 259 -44 353 -32 44 6 89 11 100 11 20 0 19 -2 -5 -27 -75
-80 -105 -180 -74 -240 25 -50 72 -77 131 -77 68 0 103 21 193 115 l77 80 100
21 c145 29 234 79 271 151 l15 27 197 0 c195 0 198 0 235 -26z"/>
<path d="M906 2278 c-9 -12 -16 -33 -16 -45 0 -44 40 -129 77 -165 57 -54 92
-68 171 -68 60 0 74 4 115 31 62 41 103 105 111 173 13 99 19 96 -229 96 -210
0 -214 0 -229 -22z m129 -73 c18 -53 47 -92 88 -119 l41 -26 -38 0 c-43 0 -69
12 -109 49 -36 33 -57 72 -57 106 0 24 3 26 33 23 25 -2 34 -9 42 -33z"/>
<path d="M453 2283 c-21 -8 -15 -67 10 -103 38 -57 72 -75 135 -75 67 1 107
25 142 86 17 32 19 43 10 54 -20 24 -48 17 -65 -14 -45 -87 -132 -78 -184 18
-19 36 -28 43 -48 34z"/>
<path d="M727 1194 c-4 -4 -7 -141 -7 -305 0 -328 -4 -309 65 -309 47 0 55 20
55 134 l0 96 73 0 c142 1 217 69 217 198 0 72 -34 130 -95 162 -44 22 -64 25
-175 28 -69 2 -129 0 -133 -4z m261 -139 c28 -33 29 -84 2 -113 -17 -18 -32
-22 -85 -22 l-65 0 0 78 c0 43 3 82 8 86 4 5 32 6 62 3 43 -5 60 -12 78 -32z"/>
<path d="M1237 1186 c-15 -16 -17 -47 -17 -300 0 -242 2 -285 15 -296 21 -17
220 -7 290 14 61 19 128 74 155 127 72 140 35 337 -78 411 -59 39 -99 49 -227
55 -106 5 -123 4 -138 -11z m233 -107 c85 -19 123 -80 122 -195 -1 -125 -61
-184 -189 -184 l-63 0 0 188 c0 104 3 192 7 195 9 10 71 8 123 -4z"/>
<path d="M1833 1184 c-10 -4 -13 -74 -13 -299 0 -323 -4 -305 65 -305 18 0 37
6 43 13 6 7 13 64 14 128 l3 114 95 5 c90 5 95 6 98 29 2 12 1 34 -2 47 -6 22
-11 23 -99 26 l-92 3 0 70 0 70 110 5 110 5 0 45 0 45 -160 2 c-88 1 -166 -1
-172 -3z"/>
</g>
</svg>
