<svg version="1.0" xmlns="http://www.w3.org/2000/svg"
 width="221.000000pt" height="288.000000pt" viewBox="0 0 221.000000 288.000000"
 preserveAspectRatio="xMidYMid meet">

<g transform="translate(0.000000,288.000000) scale(0.100000,-0.100000)"
fill="#000000" stroke="none">
<path d="M106 2856 c-21 -13 -49 -41 -62 -62 l-24 -39 0 -1305 0 -1306 27 -42
c18 -27 45 -51 73 -65 l45 -22 925 -3 c711 -2 934 0 965 9 54 17 89 43 114 83
21 33 21 39 21 1110 l0 1076 -42 47 c-24 25 -111 116 -193 202 -83 86 -184
191 -225 234 -41 44 -87 85 -102 93 -22 12 -149 14 -755 14 l-728 0 -39 -24z
m1454 -274 l5 -204 27 -22 28 -21 -58 -50 c-51 -44 -151 -151 -170 -182 -6 -9
-26 -7 -82 9 -63 18 -104 22 -258 23 l-184 1 -42 71 c-115 189 -252 323 -333
323 -44 0 -66 -36 -94 -158 -20 -84 -21 -113 -17 -288 4 -148 2 -198 -8 -212
-48 -69 -67 -226 -40 -328 57 -214 303 -394 606 -443 84 -14 276 -14 360 0
223 36 413 159 493 319 32 64 32 66 30 197 -2 73 -4 152 -5 176 -1 23 10 107
25 187 15 79 27 170 27 202 l0 58 120 0 120 0 0 -1027 c0 -802 -3 -1034 -13
-1053 -7 -14 -28 -33 -47 -42 -33 -17 -99 -18 -943 -18 -982 0 -943 -2 -981
52 -14 20 -16 159 -16 1303 l0 1282 23 20 c12 11 29 23 37 26 8 3 323 5 700 4
l685 -2 5 -203z m332 -114 l130 -138 -74 0 -74 0 -21 50 c-19 45 -24 50 -54
50 -18 0 -56 -13 -85 -29 -28 -17 -55 -27 -58 -24 -8 9 -8 308 1 317 8 8 61
-43 235 -226z m-1346 -46 c63 -46 137 -134 210 -249 37 -59 73 -114 79 -121 9
-10 30 -9 107 4 88 15 106 15 221 0 68 -9 146 -23 173 -31 27 -8 56 -15 65
-15 9 0 43 35 75 77 89 116 288 282 311 259 26 -26 10 -247 -33 -443 -24 -107
-24 -115 -9 -165 20 -68 19 -178 -2 -244 -34 -108 -145 -213 -284 -269 -190
-75 -452 -83 -647 -19 -140 46 -279 139 -347 232 -42 56 -75 156 -75 222 0 59
29 157 60 200 21 30 22 35 11 125 -15 124 -14 209 4 330 15 105 22 135 35 135
4 0 25 -13 46 -28z"/>
<path d="M453 943 c-18 -7 -19 -573 -1 -591 18 -18 95 -15 102 4 3 9 6 54 6
100 l0 84 61 0 c161 0 249 74 249 210 0 97 -57 169 -149 189 -51 11 -244 14
-268 4z m236 -114 c38 -13 51 -35 51 -86 0 -64 -27 -83 -119 -83 l-61 0 0 90
0 90 49 0 c26 0 62 -5 80 -11z"/>
<path d="M962 938 c-9 -12 -12 -85 -10 -304 l3 -289 136 0 c128 1 138 2 193
29 105 51 152 151 144 305 -7 129 -49 196 -152 242 -66 29 -294 41 -314 17z
m271 -129 c49 -26 76 -82 77 -160 0 -65 -15 -115 -43 -147 -25 -27 -113 -55
-159 -50 l-33 3 -3 194 -2 194 62 -7 c34 -4 79 -16 101 -27z"/>
<path d="M1516 924 c-9 -24 -7 -557 3 -572 5 -9 25 -12 57 -10 l49 3 3 123 3
122 89 0 c100 0 108 7 95 76 l-6 34 -90 0 -90 0 3 68 3 67 90 2 c50 1 96 2
103 2 8 1 12 18 12 51 l0 50 -159 0 c-136 0 -160 -2 -165 -16z"/>
<path d="M596 1745 c-7 -20 7 -42 34 -50 11 -4 20 -20 24 -45 3 -21 18 -52 32
-69 22 -27 32 -31 74 -31 41 0 52 4 74 30 14 17 28 46 32 65 5 30 10 35 35 35
25 0 29 4 29 30 0 35 -5 36 -196 45 -118 6 -132 5 -138 -10z"/>
<path d="M1162 1747 c-24 -28 -25 -74 -2 -141 70 -213 341 -226 436 -21 23 49
33 148 17 158 -5 3 -105 8 -224 12 -181 6 -217 5 -227 -8z m120 -90 c12 -58
35 -95 80 -127 l41 -30 -34 0 c-75 1 -158 82 -159 156 0 38 7 46 39 42 20 -2
27 -11 33 -41z"/>
<path d="M897 1493 c-16 -15 -5 -47 31 -84 60 -66 65 -66 127 -13 55 46 66 69
43 92 -13 13 -189 17 -201 5z"/>
<path d="M977 1333 c-14 -14 -6 -41 19 -67 36 -35 97 -51 144 -37 44 13 81 46
74 66 -7 17 -49 20 -59 5 -3 -5 -28 -10 -54 -10 -38 0 -52 5 -71 25 -23 25
-41 31 -53 18z"/>
</g>
</svg>
